<svg width="32" height="32" viewBox="0 0 32 32" fill="none" xmlns="http://www.w3.org/2000/svg">
<path fill-rule="evenodd" clip-rule="evenodd" d="M32 16C32 24.8366 24.8366 32 16 32C7.16344 32 0 24.8366 0 16C0 7.16344 7.16344 0 16 0C24.8366 0 32 7.16344 32 16ZM22.0039 19.1197C22.2664 19.3072 22.5289 19.4947 22.7789 19.6947C22.8593 19.7578 22.9417 19.8197 23.0239 19.8814C23.6577 20.3573 24.283 20.8268 23.9289 21.8447C23.4789 23.0447 22.0289 24.2447 20.7789 24.2447C20.734 24.2334 20.6814 24.2222 20.6236 24.2098C20.4241 24.1671 20.1615 24.111 19.9289 23.9947C14.4789 21.6447 10.4789 17.7447 8.27891 12.1447C7.52891 10.2947 8.32891 8.74467 10.2289 8.09467C10.5789 7.99467 10.8789 7.94467 11.2289 8.09467C12.0289 8.39467 14.0789 11.2447 14.1289 12.0947C14.1789 12.7447 13.7289 13.0947 13.2789 13.3947C12.4289 13.9947 12.4289 14.6947 12.7789 15.4947C13.5789 17.2947 14.9789 18.5447 16.7289 19.3447C17.3789 19.6447 17.9789 19.5947 18.4289 18.9447C19.2289 17.7447 20.1789 17.7947 21.2289 18.5447C21.4789 18.7447 21.7414 18.9322 22.0039 19.1197Z" fill="white"/>
</svg>
