<svg width="32" height="32" viewBox="0 0 32 32" fill="none" xmlns="http://www.w3.org/2000/svg">
<path fill-rule="evenodd" clip-rule="evenodd" d="M16 32C24.8366 32 32 24.8366 32 16C32 7.16344 24.8366 0 16 0C7.16344 0 0 7.16344 0 16C0 24.8366 7.16344 32 16 32ZM22.2999 19.05C22.0499 18.85 21.7874 18.6625 21.5249 18.475C21.2624 18.2875 20.9999 18.1 20.7499 17.9C19.6999 17.15 18.7499 17.1 17.9499 18.3C17.4999 18.95 16.8999 19 16.2499 18.7C14.4999 17.9 13.0999 16.65 12.2999 14.85C11.9499 14.05 11.9499 13.35 12.7999 12.75C13.2499 12.45 13.6999 12.1 13.6499 11.45C13.5999 10.6 11.5499 7.75002 10.7499 7.45002C10.3999 7.30002 10.0999 7.35002 9.74991 7.45002C7.84991 8.10002 7.04991 9.65002 7.79991 11.5C9.99991 17.1 13.9999 21 19.4499 23.35C19.6825 23.4663 19.9451 23.5225 20.1446 23.5652C20.2024 23.5775 20.255 23.5888 20.2999 23.6C21.5499 23.6 22.9999 22.4 23.4499 21.2C23.804 20.1821 23.1787 19.7126 22.5449 19.2368C22.4627 19.175 22.3803 19.1132 22.2999 19.05ZM22.4999 14.4C21.9999 10.35 20.1499 8.45002 16.1499 7.85002C16.0852 7.84077 16.0153 7.83494 15.9448 7.82906C15.6338 7.80312 15.3092 7.77604 15.3499 7.45001C15.3877 6.95939 15.7388 6.98153 16.0377 7.00038C16.1348 7.0065 16.2264 7.01227 16.2999 7.00001C20.1499 7.15001 23.4499 10.65 23.3999 14.45C23.3888 14.528 23.3876 14.6158 23.3863 14.7054C23.382 15.0177 23.3774 15.35 22.9499 15.35C22.5226 15.35 22.5178 14.9879 22.5135 14.6622C22.5123 14.5686 22.5111 14.4781 22.4999 14.4ZM16.7485 8.91754L16.7485 8.91754C16.3976 8.85478 16.0336 8.78969 15.9499 9.25005C15.8697 9.69107 16.2075 9.74631 16.5507 9.80244C16.6355 9.81631 16.7207 9.83023 16.7999 9.85005C19.2499 10.4 20.1499 11.3 20.5499 13.75C20.5589 13.813 20.563 13.8823 20.5673 13.9532V13.9533C20.5866 14.2768 20.6078 14.6321 21.0999 14.55C21.4374 14.5125 21.4374 14.2219 21.4374 13.9735C21.4374 13.8907 21.4374 13.8125 21.4499 13.75C21.4499 11.4 19.3999 9.25005 16.9499 8.95005C16.8847 8.9419 16.8169 8.92977 16.7485 8.91754ZM16.5499 11.2C16.6499 10.95 16.8999 10.9 17.1499 10.9C18.2499 10.85 19.5499 12.15 19.4999 13.25C19.4999 13.6 19.4499 13.9 19.0999 13.95C18.8499 14 18.6999 13.75 18.6499 13.5C18.5499 12.5 17.9999 11.9 16.9999 11.75C16.6999 11.7 16.3999 11.6 16.5499 11.2Z" fill="white"/>
</svg>
