<svg width="512" height="512" viewBox="0 0 512 512" fill="none" xmlns="http://www.w3.org/2000/svg">
<g clip-path="url(#clip0_212_34)">
<path fill-rule="evenodd" clip-rule="evenodd" d="M74.953 75.0079C174.912 -24.9821 337.003 -25.0061 436.992 74.9529C485.005 122.951 511.986 188.055 512 255.945C512.015 323.846 485.053 388.971 437.047 436.992C337.088 536.982 174.998 537.006 75.008 437.047C-24.982 337.088 -25.006 174.998 74.953 75.0079ZM179.017 131.833C179.017 118.118 190.135 107 203.85 107C217.565 107 228.683 118.118 228.683 131.833V181.5H278.35V131.833C278.35 118.118 289.468 107 303.183 107C316.898 107 328.017 118.118 328.017 131.833V181.5H380.167C393.882 181.5 405 192.618 405 206.333C405 220.048 393.882 231.167 380.167 231.167H328.017V280.833H380.167C393.882 280.833 405 291.952 405 305.667C405 319.382 393.882 330.5 380.167 330.5H328.017V380.167C328.017 393.882 316.898 405 303.183 405C289.468 405 278.35 393.882 278.35 380.167V330.5H228.683V380.167C228.683 393.882 217.565 405 203.85 405C190.135 405 179.017 393.882 179.017 380.167V330.5H131.833C118.118 330.5 107 319.382 107 305.667C107 291.952 118.118 280.833 131.833 280.833H179.017V231.167H131.833C118.118 231.167 107 220.048 107 206.333C107 192.618 118.118 181.5 131.833 181.5H179.017V131.833ZM278.35 231.167V280.833L228.683 280.833V231.167H278.35Z" fill="white"/>
</g>
<defs>
<clipPath id="clip0_212_34">
<rect width="512" height="512" fill="white"/>
</clipPath>
</defs>
</svg>
