<svg width="512" height="512" viewBox="0 0 512 512" fill="none" xmlns="http://www.w3.org/2000/svg">
<g clip-path="url(#clip0_212_34)">
<path fill-rule="evenodd" clip-rule="evenodd" d="M74.953 75.0079C174.912 -24.9821 337.003 -25.0061 436.992 74.9529C485.005 122.951 511.986 188.055 512 255.945C512.015 323.846 485.053 388.971 437.047 436.992C337.088 536.982 174.998 537.006 75.008 437.047C-24.982 337.088 -25.006 174.998 74.953 75.0079ZM117 302.093C141.853 302.093 162 281.477 162 256.047C162 230.616 141.853 210 117 210C92.1472 210 72 230.616 72 256.047C72 281.477 92.1472 302.093 117 302.093ZM301 256.047C301 281.477 280.853 302.093 256 302.093C231.147 302.093 211 281.477 211 256.047C211 230.616 231.147 210 256 210C280.853 210 301 230.616 301 256.047ZM395 302.093C419.853 302.093 440 281.477 440 256.047C440 230.616 419.853 210 395 210C370.147 210 350 230.616 350 256.047C350 281.477 370.147 302.093 395 302.093Z" fill="white"/>
</g>
<defs>
<clipPath id="clip0_212_34">
<rect width="512" height="512" fill="white"/>
</clipPath>
</defs>
</svg>
