<svg width="32" height="32" viewBox="0 0 32 32" fill="none" xmlns="http://www.w3.org/2000/svg">
<g clip-path="url(#clip0_286_27)">
<rect width="32" height="32" fill="white"/>
<path d="M12.1046 17.2675C12.0633 17.2675 12.0298 17.2943 12.0298 17.3273C12.0298 17.3603 12.0633 17.3871 12.1046 17.3871H12.327C14.3108 17.3871 15.9248 18.6783 15.9248 20.2654V22.154H11.8219V20.4232C11.8219 19.4491 10.8314 18.6565 9.61373 18.6565H6.94869L4.92593 16.1367H9.70203C10.871 16.1367 11.8221 15.3753 11.8221 14.4393V14.1596C11.8221 13.3634 11.0132 12.7157 10.0187 12.7157H2.17947L-0.000175458 10H12.2242C14.265 10 15.925 11.3282 15.925 12.9609V14.2111C15.925 15.8963 14.2111 17.2675 12.1046 17.2675Z" fill="black"/>
<path d="M19.6726 17.3871H19.8953C19.9366 17.3871 19.97 17.3603 19.97 17.3273C19.97 17.2943 19.9366 17.2675 19.8953 17.2675C17.7885 17.2675 16.0748 15.8963 16.0748 14.2111V12.9609C16.0748 11.3282 17.7351 10 19.7759 10H32L29.8204 12.7157H21.9812C20.9869 12.7157 20.1777 13.3634 20.1777 14.1596V14.4393C20.1777 15.3753 21.1288 16.1367 22.2978 16.1367H27.0737L25.0511 18.6565H22.3859C21.1682 18.6565 20.1775 19.4491 20.1775 20.4232V22.154H16.0745V20.2654C16.0745 18.6783 17.6886 17.3871 19.6726 17.3871Z" fill="black"/>
</g>
<defs>
<clipPath id="clip0_286_27">
<rect width="32" height="32" fill="white"/>
</clipPath>
</defs>
</svg>
