<svg width="512" height="512" viewBox="0 0 512 512" fill="none" xmlns="http://www.w3.org/2000/svg">
<g clip-path="url(#clip0_212_34)">
<path fill-rule="evenodd" clip-rule="evenodd" d="M436.992 74.9529C337.003 -25.0061 174.912 -24.9821 74.953 75.0079C-25.006 174.998 -24.982 337.088 75.008 437.047C174.998 537.006 337.088 536.982 437.047 436.992C485.053 388.971 512.015 323.846 512 255.945C511.986 188.055 485.005 122.951 436.992 74.9529ZM208.433 335.922L256.192 383.681L110.744 401.772L123.769 251.258L176.594 304.083L227.247 253.429L259.086 285.269L208.433 335.922ZM256.289 128.769L304.048 176.528L253.394 227.182L285.233 259.021L335.887 208.367L388.711 261.192L401.736 110.679L256.289 128.769Z" fill="white"/>
</g>
<defs>
<clipPath id="clip0_212_34">
<rect width="512" height="512" fill="white"/>
</clipPath>
</defs>
</svg>
